<?xml version="1.0" encoding="iso-8859-1"?>
<!-- Generator: Adobe Illustrator 19.0.0, SVG Export Plug-In . SVG Version: 6.00 Build 0)  -->
<svg xmlns="http://www.w3.org/2000/svg" xmlns:xlink="http://www.w3.org/1999/xlink" version="1.1" id="Layer_1" x="0px" y="0px" viewBox="0 0 511.999 511.999" style="enable-background:new 0 0 511.999 511.999;" xml:space="preserve">
<g>
	<g>
		<path d="M503.191,381.957c-0.055-0.096-0.111-0.19-0.168-0.286L312.267,63.218c-0.019-0.033-0.04-0.065-0.059-0.098    c-9.104-15.01-23.51-25.577-40.561-29.752c-17.053-4.178-34.709-1.461-49.72,7.644c-9.003,5.462-16.648,13.107-22.108,22.109    c-0.019,0.032-0.039,0.064-0.058,0.097L9.004,381.669c-0.057,0.096-0.113,0.191-0.168,0.287    c-8.779,15.203-11.112,32.915-6.569,49.872c4.543,16.958,15.416,31.131,30.62,39.91c9.76,5.635,20.875,8.679,32.143,8.804    c0.076,0.001,0.152,0.001,0.228,0.001h381.513c0.076,0,0.152,0,0.227,0.001c36.237-0.399,65.395-30.205,64.997-66.444    C511.87,402.831,508.827,391.715,503.191,381.957z M446.639,439.181H65.389c-4.145-0.062-8.229-1.188-11.82-3.263    c-5.635-3.253-9.665-8.507-11.349-14.792c-1.672-6.24-0.832-12.755,2.365-18.364L235.211,84.53    c2.021-3.319,4.846-6.138,8.169-8.154c5.564-3.374,12.11-4.381,18.429-2.833c6.305,1.544,11.633,5.444,15.009,10.986    L467.44,402.76c2.045,3.588,3.149,7.663,3.194,11.793C470.783,427.954,460.026,438.981,446.639,439.181z"/>
	</g>
</g>
<g>
</g>
<g>
</g>
<g>
</g>
<g>
</g>
<g>
</g>
<g>
</g>
<g>
</g>
<g>
</g>
<g>
</g>
<g>
</g>
<g>
</g>
<g>
</g>
<g>
</g>
<g>
</g>
<g>
</g>
</svg>
